<svg width="24" height="24" viewBox="0 0 24 24" fill="none" xmlns="http://www.w3.org/2000/svg">
  <path d="M19 17H16V15C16 13.8954 16.8954 13 18 13C19.1046 13 20 13.8954 20 15V17ZM8 17H5V15C5 13.8954 5.89543 13 7 13C8.10457 13 9 13.8954 9 15V17ZM16 7.5H19L17.5 2.5H6.5L5 7.5H8M12 15H15V10.5C15 10.2239 14.7761 10 14.5 10H9.5C9.22386 10 9 10.2239 9 10.5V15H12ZM7.98143 2C6.93643 2 6.04143 2.745 5.86643 3.769L4.12643 10.67C4.04643 11.118 4.23643 11.576 4.60643 11.841L5.00143 12.134V16.57C5.00143 17.359 5.64143 18 6.43143 18H7.68143C8.46143 18 9.09143 17.369 9.10143 16.589L9.11143 15H14.8914V16.571C14.8914 17.359 15.5314 18 16.3214 18H17.5714C18.3514 18 18.9914 17.36 18.9914 16.57V12.134L19.3864 11.839C19.7464 11.577 19.9464 11.119 19.8664 10.671L18.1264 3.769C17.9514 2.745 17.0564 2 16.0114 2H7.98143Z" stroke="#0284c7" stroke-width="1" fill="#0284c7" />
</svg>